<mxfile host="app.diagrams.net" modified="2024-04-27T20:07:23.626Z" agent="Mozilla/5.0 (Windows NT 10.0; Win64; x64) AppleWebKit/537.36 (KHTML, like Gecko) Chrome/124.0.0.0 Safari/537.36" etag="zEbVrEwVE7a_Lh89211N" version="24.3.1" type="device">
  <diagram name="Page-1" id="bM4Qk_lCGFbUwtm_Hjm1">
    <mxGraphModel dx="3058" dy="1110" grid="1" gridSize="10" guides="1" tooltips="1" connect="1" arrows="1" fold="1" page="1" pageScale="1" pageWidth="850" pageHeight="1100" math="0" shadow="0">
      <root>
        <mxCell id="0" />
        <mxCell id="1" parent="0" />
        <mxCell id="bKbBzN9ccPdYWVPpAuME-9" value="Account" style="swimlane;fontStyle=0;childLayout=stackLayout;horizontal=1;startSize=26;fillColor=none;horizontalStack=0;resizeParent=1;resizeParentMax=0;resizeLast=0;collapsible=1;marginBottom=0;whiteSpace=wrap;html=1;" vertex="1" parent="1">
          <mxGeometry x="340" y="60" width="140" height="156" as="geometry" />
        </mxCell>
        <mxCell id="bKbBzN9ccPdYWVPpAuME-10" value="int id" style="text;strokeColor=none;fillColor=none;align=left;verticalAlign=top;spacingLeft=4;spacingRight=4;overflow=hidden;rotatable=0;points=[[0,0.5],[1,0.5]];portConstraint=eastwest;whiteSpace=wrap;html=1;" vertex="1" parent="bKbBzN9ccPdYWVPpAuME-9">
          <mxGeometry y="26" width="140" height="26" as="geometry" />
        </mxCell>
        <mxCell id="bKbBzN9ccPdYWVPpAuME-11" value="int numberAccount" style="text;strokeColor=none;fillColor=none;align=left;verticalAlign=top;spacingLeft=4;spacingRight=4;overflow=hidden;rotatable=0;points=[[0,0.5],[1,0.5]];portConstraint=eastwest;whiteSpace=wrap;html=1;" vertex="1" parent="bKbBzN9ccPdYWVPpAuME-9">
          <mxGeometry y="52" width="140" height="26" as="geometry" />
        </mxCell>
        <mxCell id="bKbBzN9ccPdYWVPpAuME-12" value="double balance" style="text;strokeColor=none;fillColor=none;align=left;verticalAlign=top;spacingLeft=4;spacingRight=4;overflow=hidden;rotatable=0;points=[[0,0.5],[1,0.5]];portConstraint=eastwest;whiteSpace=wrap;html=1;" vertex="1" parent="bKbBzN9ccPdYWVPpAuME-9">
          <mxGeometry y="78" width="140" height="26" as="geometry" />
        </mxCell>
        <mxCell id="bKbBzN9ccPdYWVPpAuME-13" value="int currencyID" style="text;strokeColor=none;fillColor=none;align=left;verticalAlign=top;spacingLeft=4;spacingRight=4;overflow=hidden;rotatable=0;points=[[0,0.5],[1,0.5]];portConstraint=eastwest;whiteSpace=wrap;html=1;" vertex="1" parent="bKbBzN9ccPdYWVPpAuME-9">
          <mxGeometry y="104" width="140" height="26" as="geometry" />
        </mxCell>
        <mxCell id="bKbBzN9ccPdYWVPpAuME-14" value="int bankID" style="text;strokeColor=none;fillColor=none;align=left;verticalAlign=top;spacingLeft=4;spacingRight=4;overflow=hidden;rotatable=0;points=[[0,0.5],[1,0.5]];portConstraint=eastwest;whiteSpace=wrap;html=1;" vertex="1" parent="bKbBzN9ccPdYWVPpAuME-9">
          <mxGeometry y="130" width="140" height="26" as="geometry" />
        </mxCell>
        <mxCell id="bKbBzN9ccPdYWVPpAuME-15" value="Bank" style="swimlane;fontStyle=0;childLayout=stackLayout;horizontal=1;startSize=26;fillColor=none;horizontalStack=0;resizeParent=1;resizeParentMax=0;resizeLast=0;collapsible=1;marginBottom=0;whiteSpace=wrap;html=1;" vertex="1" parent="1">
          <mxGeometry x="125" y="170" width="140" height="78" as="geometry" />
        </mxCell>
        <mxCell id="bKbBzN9ccPdYWVPpAuME-16" value="int id" style="text;strokeColor=none;fillColor=none;align=left;verticalAlign=top;spacingLeft=4;spacingRight=4;overflow=hidden;rotatable=0;points=[[0,0.5],[1,0.5]];portConstraint=eastwest;whiteSpace=wrap;html=1;" vertex="1" parent="bKbBzN9ccPdYWVPpAuME-15">
          <mxGeometry y="26" width="140" height="26" as="geometry" />
        </mxCell>
        <mxCell id="bKbBzN9ccPdYWVPpAuME-17" value="String name" style="text;strokeColor=none;fillColor=none;align=left;verticalAlign=top;spacingLeft=4;spacingRight=4;overflow=hidden;rotatable=0;points=[[0,0.5],[1,0.5]];portConstraint=eastwest;whiteSpace=wrap;html=1;" vertex="1" parent="bKbBzN9ccPdYWVPpAuME-15">
          <mxGeometry y="52" width="140" height="26" as="geometry" />
        </mxCell>
        <mxCell id="bKbBzN9ccPdYWVPpAuME-19" value="Contatc" style="swimlane;fontStyle=0;childLayout=stackLayout;horizontal=1;startSize=26;fillColor=none;horizontalStack=0;resizeParent=1;resizeParentMax=0;resizeLast=0;collapsible=1;marginBottom=0;whiteSpace=wrap;html=1;" vertex="1" parent="1">
          <mxGeometry x="-70" y="114" width="140" height="130" as="geometry" />
        </mxCell>
        <mxCell id="bKbBzN9ccPdYWVPpAuME-20" value="int id" style="text;strokeColor=none;fillColor=none;align=left;verticalAlign=top;spacingLeft=4;spacingRight=4;overflow=hidden;rotatable=0;points=[[0,0.5],[1,0.5]];portConstraint=eastwest;whiteSpace=wrap;html=1;" vertex="1" parent="bKbBzN9ccPdYWVPpAuME-19">
          <mxGeometry y="26" width="140" height="26" as="geometry" />
        </mxCell>
        <mxCell id="bKbBzN9ccPdYWVPpAuME-21" value="String name" style="text;strokeColor=none;fillColor=none;align=left;verticalAlign=top;spacingLeft=4;spacingRight=4;overflow=hidden;rotatable=0;points=[[0,0.5],[1,0.5]];portConstraint=eastwest;whiteSpace=wrap;html=1;" vertex="1" parent="bKbBzN9ccPdYWVPpAuME-19">
          <mxGeometry y="52" width="140" height="26" as="geometry" />
        </mxCell>
        <mxCell id="bKbBzN9ccPdYWVPpAuME-22" value="int accountNumber" style="text;strokeColor=none;fillColor=none;align=left;verticalAlign=top;spacingLeft=4;spacingRight=4;overflow=hidden;rotatable=0;points=[[0,0.5],[1,0.5]];portConstraint=eastwest;whiteSpace=wrap;html=1;" vertex="1" parent="bKbBzN9ccPdYWVPpAuME-19">
          <mxGeometry y="78" width="140" height="26" as="geometry" />
        </mxCell>
        <mxCell id="bKbBzN9ccPdYWVPpAuME-23" value="int bankID" style="text;strokeColor=none;fillColor=none;align=left;verticalAlign=top;spacingLeft=4;spacingRight=4;overflow=hidden;rotatable=0;points=[[0,0.5],[1,0.5]];portConstraint=eastwest;whiteSpace=wrap;html=1;" vertex="1" parent="bKbBzN9ccPdYWVPpAuME-19">
          <mxGeometry y="104" width="140" height="26" as="geometry" />
        </mxCell>
        <mxCell id="bKbBzN9ccPdYWVPpAuME-24" value="Currency" style="swimlane;fontStyle=0;childLayout=stackLayout;horizontal=1;startSize=26;fillColor=none;horizontalStack=0;resizeParent=1;resizeParentMax=0;resizeLast=0;collapsible=1;marginBottom=0;whiteSpace=wrap;html=1;" vertex="1" parent="1">
          <mxGeometry x="570" y="600" width="140" height="104" as="geometry" />
        </mxCell>
        <mxCell id="bKbBzN9ccPdYWVPpAuME-25" value="int id" style="text;strokeColor=none;fillColor=none;align=left;verticalAlign=top;spacingLeft=4;spacingRight=4;overflow=hidden;rotatable=0;points=[[0,0.5],[1,0.5]];portConstraint=eastwest;whiteSpace=wrap;html=1;" vertex="1" parent="bKbBzN9ccPdYWVPpAuME-24">
          <mxGeometry y="26" width="140" height="26" as="geometry" />
        </mxCell>
        <mxCell id="bKbBzN9ccPdYWVPpAuME-26" value="String name" style="text;strokeColor=none;fillColor=none;align=left;verticalAlign=top;spacingLeft=4;spacingRight=4;overflow=hidden;rotatable=0;points=[[0,0.5],[1,0.5]];portConstraint=eastwest;whiteSpace=wrap;html=1;" vertex="1" parent="bKbBzN9ccPdYWVPpAuME-24">
          <mxGeometry y="52" width="140" height="26" as="geometry" />
        </mxCell>
        <mxCell id="bKbBzN9ccPdYWVPpAuME-27" value="String ISOcode" style="text;strokeColor=none;fillColor=none;align=left;verticalAlign=top;spacingLeft=4;spacingRight=4;overflow=hidden;rotatable=0;points=[[0,0.5],[1,0.5]];portConstraint=eastwest;whiteSpace=wrap;html=1;" vertex="1" parent="bKbBzN9ccPdYWVPpAuME-24">
          <mxGeometry y="78" width="140" height="26" as="geometry" />
        </mxCell>
        <mxCell id="bKbBzN9ccPdYWVPpAuME-44" value="Transaction" style="swimlane;fontStyle=1;align=center;verticalAlign=top;childLayout=stackLayout;horizontal=1;startSize=26;horizontalStack=0;resizeParent=1;resizeParentMax=0;resizeLast=0;collapsible=1;marginBottom=0;whiteSpace=wrap;html=1;" vertex="1" parent="1">
          <mxGeometry x="-280" y="110" width="160" height="138" as="geometry" />
        </mxCell>
        <mxCell id="bKbBzN9ccPdYWVPpAuME-45" value="int id" style="text;strokeColor=none;fillColor=none;align=left;verticalAlign=top;spacingLeft=4;spacingRight=4;overflow=hidden;rotatable=0;points=[[0,0.5],[1,0.5]];portConstraint=eastwest;whiteSpace=wrap;html=1;" vertex="1" parent="bKbBzN9ccPdYWVPpAuME-44">
          <mxGeometry y="26" width="160" height="26" as="geometry" />
        </mxCell>
        <mxCell id="bKbBzN9ccPdYWVPpAuME-48" value="TransactionType type" style="text;strokeColor=none;fillColor=none;align=left;verticalAlign=top;spacingLeft=4;spacingRight=4;overflow=hidden;rotatable=0;points=[[0,0.5],[1,0.5]];portConstraint=eastwest;whiteSpace=wrap;html=1;" vertex="1" parent="bKbBzN9ccPdYWVPpAuME-44">
          <mxGeometry y="52" width="160" height="26" as="geometry" />
        </mxCell>
        <mxCell id="bKbBzN9ccPdYWVPpAuME-49" value="double total" style="text;strokeColor=none;fillColor=none;align=left;verticalAlign=top;spacingLeft=4;spacingRight=4;overflow=hidden;rotatable=0;points=[[0,0.5],[1,0.5]];portConstraint=eastwest;whiteSpace=wrap;html=1;" vertex="1" parent="bKbBzN9ccPdYWVPpAuME-44">
          <mxGeometry y="78" width="160" height="26" as="geometry" />
        </mxCell>
        <mxCell id="bKbBzN9ccPdYWVPpAuME-50" value="Date date" style="text;strokeColor=none;fillColor=none;align=left;verticalAlign=top;spacingLeft=4;spacingRight=4;overflow=hidden;rotatable=0;points=[[0,0.5],[1,0.5]];portConstraint=eastwest;whiteSpace=wrap;html=1;" vertex="1" parent="bKbBzN9ccPdYWVPpAuME-44">
          <mxGeometry y="104" width="160" height="26" as="geometry" />
        </mxCell>
        <mxCell id="bKbBzN9ccPdYWVPpAuME-46" value="" style="line;strokeWidth=1;fillColor=none;align=left;verticalAlign=middle;spacingTop=-1;spacingLeft=3;spacingRight=3;rotatable=0;labelPosition=right;points=[];portConstraint=eastwest;strokeColor=inherit;" vertex="1" parent="bKbBzN9ccPdYWVPpAuME-44">
          <mxGeometry y="130" width="160" height="8" as="geometry" />
        </mxCell>
        <mxCell id="bKbBzN9ccPdYWVPpAuME-51" value="TransactionType (enum)" style="swimlane;fontStyle=0;childLayout=stackLayout;horizontal=1;startSize=26;fillColor=none;horizontalStack=0;resizeParent=1;resizeParentMax=0;resizeLast=0;collapsible=1;marginBottom=0;whiteSpace=wrap;html=1;" vertex="1" parent="1">
          <mxGeometry x="-440" y="10" width="140" height="130" as="geometry" />
        </mxCell>
        <mxCell id="bKbBzN9ccPdYWVPpAuME-52" value="DEPOSIT" style="text;strokeColor=none;fillColor=none;align=left;verticalAlign=top;spacingLeft=4;spacingRight=4;overflow=hidden;rotatable=0;points=[[0,0.5],[1,0.5]];portConstraint=eastwest;whiteSpace=wrap;html=1;" vertex="1" parent="bKbBzN9ccPdYWVPpAuME-51">
          <mxGeometry y="26" width="140" height="26" as="geometry" />
        </mxCell>
        <mxCell id="bKbBzN9ccPdYWVPpAuME-53" value="WITHDRAWAL" style="text;strokeColor=none;fillColor=none;align=left;verticalAlign=top;spacingLeft=4;spacingRight=4;overflow=hidden;rotatable=0;points=[[0,0.5],[1,0.5]];portConstraint=eastwest;whiteSpace=wrap;html=1;" vertex="1" parent="bKbBzN9ccPdYWVPpAuME-51">
          <mxGeometry y="52" width="140" height="26" as="geometry" />
        </mxCell>
        <mxCell id="bKbBzN9ccPdYWVPpAuME-54" value="TRANSFER" style="text;strokeColor=none;fillColor=none;align=left;verticalAlign=top;spacingLeft=4;spacingRight=4;overflow=hidden;rotatable=0;points=[[0,0.5],[1,0.5]];portConstraint=eastwest;whiteSpace=wrap;html=1;" vertex="1" parent="bKbBzN9ccPdYWVPpAuME-51">
          <mxGeometry y="78" width="140" height="26" as="geometry" />
        </mxCell>
        <mxCell id="bKbBzN9ccPdYWVPpAuME-55" value="CONVERSION" style="text;strokeColor=none;fillColor=none;align=left;verticalAlign=top;spacingLeft=4;spacingRight=4;overflow=hidden;rotatable=0;points=[[0,0.5],[1,0.5]];portConstraint=eastwest;whiteSpace=wrap;html=1;" vertex="1" parent="bKbBzN9ccPdYWVPpAuME-51">
          <mxGeometry y="104" width="140" height="26" as="geometry" />
        </mxCell>
        <mxCell id="bKbBzN9ccPdYWVPpAuME-134" value="" style="edgeStyle=orthogonalEdgeStyle;rounded=0;orthogonalLoop=1;jettySize=auto;html=1;entryX=0.49;entryY=1.115;entryDx=0;entryDy=0;entryPerimeter=0;" edge="1" parent="1" source="bKbBzN9ccPdYWVPpAuME-56" target="bKbBzN9ccPdYWVPpAuME-131">
          <mxGeometry relative="1" as="geometry">
            <Array as="points">
              <mxPoint x="-730" y="235" />
              <mxPoint x="-731" y="193" />
            </Array>
          </mxGeometry>
        </mxCell>
        <mxCell id="bKbBzN9ccPdYWVPpAuME-56" value="User" style="swimlane;fontStyle=0;childLayout=stackLayout;horizontal=1;startSize=26;fillColor=none;horizontalStack=0;resizeParent=1;resizeParentMax=0;resizeLast=0;collapsible=1;marginBottom=0;whiteSpace=wrap;html=1;" vertex="1" parent="1">
          <mxGeometry x="-800" y="280" width="140" height="78" as="geometry" />
        </mxCell>
        <mxCell id="bKbBzN9ccPdYWVPpAuME-57" value="int id" style="text;strokeColor=none;fillColor=none;align=left;verticalAlign=top;spacingLeft=4;spacingRight=4;overflow=hidden;rotatable=0;points=[[0,0.5],[1,0.5]];portConstraint=eastwest;whiteSpace=wrap;html=1;" vertex="1" parent="bKbBzN9ccPdYWVPpAuME-56">
          <mxGeometry y="26" width="140" height="26" as="geometry" />
        </mxCell>
        <mxCell id="bKbBzN9ccPdYWVPpAuME-58" value="String name" style="text;strokeColor=none;fillColor=none;align=left;verticalAlign=top;spacingLeft=4;spacingRight=4;overflow=hidden;rotatable=0;points=[[0,0.5],[1,0.5]];portConstraint=eastwest;whiteSpace=wrap;html=1;" vertex="1" parent="bKbBzN9ccPdYWVPpAuME-56">
          <mxGeometry y="52" width="140" height="26" as="geometry" />
        </mxCell>
        <mxCell id="bKbBzN9ccPdYWVPpAuME-60" value="AccountList" style="swimlane;fontStyle=1;align=center;verticalAlign=top;childLayout=stackLayout;horizontal=1;startSize=26;horizontalStack=0;resizeParent=1;resizeParentMax=0;resizeLast=0;collapsible=1;marginBottom=0;whiteSpace=wrap;html=1;" vertex="1" parent="1">
          <mxGeometry x="340" y="290" width="160" height="164" as="geometry" />
        </mxCell>
        <mxCell id="bKbBzN9ccPdYWVPpAuME-61" value="List&amp;lt;Account&amp;gt; accounts" style="text;strokeColor=none;fillColor=none;align=left;verticalAlign=top;spacingLeft=4;spacingRight=4;overflow=hidden;rotatable=0;points=[[0,0.5],[1,0.5]];portConstraint=eastwest;whiteSpace=wrap;html=1;" vertex="1" parent="bKbBzN9ccPdYWVPpAuME-60">
          <mxGeometry y="26" width="160" height="26" as="geometry" />
        </mxCell>
        <mxCell id="bKbBzN9ccPdYWVPpAuME-62" value="" style="line;strokeWidth=1;fillColor=none;align=left;verticalAlign=middle;spacingTop=-1;spacingLeft=3;spacingRight=3;rotatable=0;labelPosition=right;points=[];portConstraint=eastwest;strokeColor=inherit;" vertex="1" parent="bKbBzN9ccPdYWVPpAuME-60">
          <mxGeometry y="52" width="160" height="8" as="geometry" />
        </mxCell>
        <mxCell id="bKbBzN9ccPdYWVPpAuME-63" value="Account findByID(int id)" style="text;strokeColor=none;fillColor=none;align=left;verticalAlign=top;spacingLeft=4;spacingRight=4;overflow=hidden;rotatable=0;points=[[0,0.5],[1,0.5]];portConstraint=eastwest;whiteSpace=wrap;html=1;" vertex="1" parent="bKbBzN9ccPdYWVPpAuME-60">
          <mxGeometry y="60" width="160" height="26" as="geometry" />
        </mxCell>
        <mxCell id="bKbBzN9ccPdYWVPpAuME-64" value="void findAll()" style="text;strokeColor=none;fillColor=none;align=left;verticalAlign=top;spacingLeft=4;spacingRight=4;overflow=hidden;rotatable=0;points=[[0,0.5],[1,0.5]];portConstraint=eastwest;whiteSpace=wrap;html=1;" vertex="1" parent="bKbBzN9ccPdYWVPpAuME-60">
          <mxGeometry y="86" width="160" height="26" as="geometry" />
        </mxCell>
        <mxCell id="bKbBzN9ccPdYWVPpAuME-65" value="void injectData()" style="text;strokeColor=none;fillColor=none;align=left;verticalAlign=top;spacingLeft=4;spacingRight=4;overflow=hidden;rotatable=0;points=[[0,0.5],[1,0.5]];portConstraint=eastwest;whiteSpace=wrap;html=1;" vertex="1" parent="bKbBzN9ccPdYWVPpAuME-60">
          <mxGeometry y="112" width="160" height="26" as="geometry" />
        </mxCell>
        <mxCell id="bKbBzN9ccPdYWVPpAuME-66" value="int size()" style="text;strokeColor=none;fillColor=none;align=left;verticalAlign=top;spacingLeft=4;spacingRight=4;overflow=hidden;rotatable=0;points=[[0,0.5],[1,0.5]];portConstraint=eastwest;whiteSpace=wrap;html=1;" vertex="1" parent="bKbBzN9ccPdYWVPpAuME-60">
          <mxGeometry y="138" width="160" height="26" as="geometry" />
        </mxCell>
        <mxCell id="bKbBzN9ccPdYWVPpAuME-67" value="BankList" style="swimlane;fontStyle=1;align=center;verticalAlign=top;childLayout=stackLayout;horizontal=1;startSize=26;horizontalStack=0;resizeParent=1;resizeParentMax=0;resizeLast=0;collapsible=1;marginBottom=0;whiteSpace=wrap;html=1;" vertex="1" parent="1">
          <mxGeometry x="125" y="300" width="160" height="164" as="geometry" />
        </mxCell>
        <mxCell id="bKbBzN9ccPdYWVPpAuME-68" value="List&amp;lt;Bank&amp;gt; banks" style="text;strokeColor=none;fillColor=none;align=left;verticalAlign=top;spacingLeft=4;spacingRight=4;overflow=hidden;rotatable=0;points=[[0,0.5],[1,0.5]];portConstraint=eastwest;whiteSpace=wrap;html=1;" vertex="1" parent="bKbBzN9ccPdYWVPpAuME-67">
          <mxGeometry y="26" width="160" height="26" as="geometry" />
        </mxCell>
        <mxCell id="bKbBzN9ccPdYWVPpAuME-69" value="" style="line;strokeWidth=1;fillColor=none;align=left;verticalAlign=middle;spacingTop=-1;spacingLeft=3;spacingRight=3;rotatable=0;labelPosition=right;points=[];portConstraint=eastwest;strokeColor=inherit;" vertex="1" parent="bKbBzN9ccPdYWVPpAuME-67">
          <mxGeometry y="52" width="160" height="8" as="geometry" />
        </mxCell>
        <mxCell id="bKbBzN9ccPdYWVPpAuME-70" value="Bank findByID(int id)" style="text;strokeColor=none;fillColor=none;align=left;verticalAlign=top;spacingLeft=4;spacingRight=4;overflow=hidden;rotatable=0;points=[[0,0.5],[1,0.5]];portConstraint=eastwest;whiteSpace=wrap;html=1;" vertex="1" parent="bKbBzN9ccPdYWVPpAuME-67">
          <mxGeometry y="60" width="160" height="26" as="geometry" />
        </mxCell>
        <mxCell id="bKbBzN9ccPdYWVPpAuME-71" value="void findAll()" style="text;strokeColor=none;fillColor=none;align=left;verticalAlign=top;spacingLeft=4;spacingRight=4;overflow=hidden;rotatable=0;points=[[0,0.5],[1,0.5]];portConstraint=eastwest;whiteSpace=wrap;html=1;" vertex="1" parent="bKbBzN9ccPdYWVPpAuME-67">
          <mxGeometry y="86" width="160" height="26" as="geometry" />
        </mxCell>
        <mxCell id="bKbBzN9ccPdYWVPpAuME-72" value="void injectData()" style="text;strokeColor=none;fillColor=none;align=left;verticalAlign=top;spacingLeft=4;spacingRight=4;overflow=hidden;rotatable=0;points=[[0,0.5],[1,0.5]];portConstraint=eastwest;whiteSpace=wrap;html=1;" vertex="1" parent="bKbBzN9ccPdYWVPpAuME-67">
          <mxGeometry y="112" width="160" height="26" as="geometry" />
        </mxCell>
        <mxCell id="bKbBzN9ccPdYWVPpAuME-73" value="int size()" style="text;strokeColor=none;fillColor=none;align=left;verticalAlign=top;spacingLeft=4;spacingRight=4;overflow=hidden;rotatable=0;points=[[0,0.5],[1,0.5]];portConstraint=eastwest;whiteSpace=wrap;html=1;" vertex="1" parent="bKbBzN9ccPdYWVPpAuME-67">
          <mxGeometry y="138" width="160" height="26" as="geometry" />
        </mxCell>
        <mxCell id="bKbBzN9ccPdYWVPpAuME-74" value="ContactList" style="swimlane;fontStyle=1;align=center;verticalAlign=top;childLayout=stackLayout;horizontal=1;startSize=26;horizontalStack=0;resizeParent=1;resizeParentMax=0;resizeLast=0;collapsible=1;marginBottom=0;whiteSpace=wrap;html=1;" vertex="1" parent="1">
          <mxGeometry x="-70" y="300" width="160" height="164" as="geometry" />
        </mxCell>
        <mxCell id="bKbBzN9ccPdYWVPpAuME-75" value="List&amp;lt;Contact&amp;gt; contacts" style="text;strokeColor=none;fillColor=none;align=left;verticalAlign=top;spacingLeft=4;spacingRight=4;overflow=hidden;rotatable=0;points=[[0,0.5],[1,0.5]];portConstraint=eastwest;whiteSpace=wrap;html=1;" vertex="1" parent="bKbBzN9ccPdYWVPpAuME-74">
          <mxGeometry y="26" width="160" height="26" as="geometry" />
        </mxCell>
        <mxCell id="bKbBzN9ccPdYWVPpAuME-76" value="" style="line;strokeWidth=1;fillColor=none;align=left;verticalAlign=middle;spacingTop=-1;spacingLeft=3;spacingRight=3;rotatable=0;labelPosition=right;points=[];portConstraint=eastwest;strokeColor=inherit;" vertex="1" parent="bKbBzN9ccPdYWVPpAuME-74">
          <mxGeometry y="52" width="160" height="8" as="geometry" />
        </mxCell>
        <mxCell id="bKbBzN9ccPdYWVPpAuME-77" value="Contact findByID(int id)" style="text;strokeColor=none;fillColor=none;align=left;verticalAlign=top;spacingLeft=4;spacingRight=4;overflow=hidden;rotatable=0;points=[[0,0.5],[1,0.5]];portConstraint=eastwest;whiteSpace=wrap;html=1;" vertex="1" parent="bKbBzN9ccPdYWVPpAuME-74">
          <mxGeometry y="60" width="160" height="26" as="geometry" />
        </mxCell>
        <mxCell id="bKbBzN9ccPdYWVPpAuME-78" value="void findAll()" style="text;strokeColor=none;fillColor=none;align=left;verticalAlign=top;spacingLeft=4;spacingRight=4;overflow=hidden;rotatable=0;points=[[0,0.5],[1,0.5]];portConstraint=eastwest;whiteSpace=wrap;html=1;" vertex="1" parent="bKbBzN9ccPdYWVPpAuME-74">
          <mxGeometry y="86" width="160" height="26" as="geometry" />
        </mxCell>
        <mxCell id="bKbBzN9ccPdYWVPpAuME-79" value="void injectData()" style="text;strokeColor=none;fillColor=none;align=left;verticalAlign=top;spacingLeft=4;spacingRight=4;overflow=hidden;rotatable=0;points=[[0,0.5],[1,0.5]];portConstraint=eastwest;whiteSpace=wrap;html=1;" vertex="1" parent="bKbBzN9ccPdYWVPpAuME-74">
          <mxGeometry y="112" width="160" height="26" as="geometry" />
        </mxCell>
        <mxCell id="bKbBzN9ccPdYWVPpAuME-80" value="int size()" style="text;strokeColor=none;fillColor=none;align=left;verticalAlign=top;spacingLeft=4;spacingRight=4;overflow=hidden;rotatable=0;points=[[0,0.5],[1,0.5]];portConstraint=eastwest;whiteSpace=wrap;html=1;" vertex="1" parent="bKbBzN9ccPdYWVPpAuME-74">
          <mxGeometry y="138" width="160" height="26" as="geometry" />
        </mxCell>
        <mxCell id="bKbBzN9ccPdYWVPpAuME-81" value="CurrencyList" style="swimlane;fontStyle=1;align=center;verticalAlign=top;childLayout=stackLayout;horizontal=1;startSize=26;horizontalStack=0;resizeParent=1;resizeParentMax=0;resizeLast=0;collapsible=1;marginBottom=0;whiteSpace=wrap;html=1;" vertex="1" parent="1">
          <mxGeometry x="360" y="590" width="160" height="164" as="geometry" />
        </mxCell>
        <mxCell id="bKbBzN9ccPdYWVPpAuME-82" value="List&amp;lt;Currency&amp;gt; currencies" style="text;strokeColor=none;fillColor=none;align=left;verticalAlign=top;spacingLeft=4;spacingRight=4;overflow=hidden;rotatable=0;points=[[0,0.5],[1,0.5]];portConstraint=eastwest;whiteSpace=wrap;html=1;" vertex="1" parent="bKbBzN9ccPdYWVPpAuME-81">
          <mxGeometry y="26" width="160" height="26" as="geometry" />
        </mxCell>
        <mxCell id="bKbBzN9ccPdYWVPpAuME-83" value="" style="line;strokeWidth=1;fillColor=none;align=left;verticalAlign=middle;spacingTop=-1;spacingLeft=3;spacingRight=3;rotatable=0;labelPosition=right;points=[];portConstraint=eastwest;strokeColor=inherit;" vertex="1" parent="bKbBzN9ccPdYWVPpAuME-81">
          <mxGeometry y="52" width="160" height="8" as="geometry" />
        </mxCell>
        <mxCell id="bKbBzN9ccPdYWVPpAuME-84" value="Currency findByID(int id)" style="text;strokeColor=none;fillColor=none;align=left;verticalAlign=top;spacingLeft=4;spacingRight=4;overflow=hidden;rotatable=0;points=[[0,0.5],[1,0.5]];portConstraint=eastwest;whiteSpace=wrap;html=1;" vertex="1" parent="bKbBzN9ccPdYWVPpAuME-81">
          <mxGeometry y="60" width="160" height="26" as="geometry" />
        </mxCell>
        <mxCell id="bKbBzN9ccPdYWVPpAuME-85" value="void findAll()" style="text;strokeColor=none;fillColor=none;align=left;verticalAlign=top;spacingLeft=4;spacingRight=4;overflow=hidden;rotatable=0;points=[[0,0.5],[1,0.5]];portConstraint=eastwest;whiteSpace=wrap;html=1;" vertex="1" parent="bKbBzN9ccPdYWVPpAuME-81">
          <mxGeometry y="86" width="160" height="26" as="geometry" />
        </mxCell>
        <mxCell id="bKbBzN9ccPdYWVPpAuME-86" value="void injectData()" style="text;strokeColor=none;fillColor=none;align=left;verticalAlign=top;spacingLeft=4;spacingRight=4;overflow=hidden;rotatable=0;points=[[0,0.5],[1,0.5]];portConstraint=eastwest;whiteSpace=wrap;html=1;" vertex="1" parent="bKbBzN9ccPdYWVPpAuME-81">
          <mxGeometry y="112" width="160" height="26" as="geometry" />
        </mxCell>
        <mxCell id="bKbBzN9ccPdYWVPpAuME-87" value="int size()" style="text;strokeColor=none;fillColor=none;align=left;verticalAlign=top;spacingLeft=4;spacingRight=4;overflow=hidden;rotatable=0;points=[[0,0.5],[1,0.5]];portConstraint=eastwest;whiteSpace=wrap;html=1;" vertex="1" parent="bKbBzN9ccPdYWVPpAuME-81">
          <mxGeometry y="138" width="160" height="26" as="geometry" />
        </mxCell>
        <mxCell id="bKbBzN9ccPdYWVPpAuME-88" value="TransactionList" style="swimlane;fontStyle=1;align=center;verticalAlign=top;childLayout=stackLayout;horizontal=1;startSize=26;horizontalStack=0;resizeParent=1;resizeParentMax=0;resizeLast=0;collapsible=1;marginBottom=0;whiteSpace=wrap;html=1;" vertex="1" parent="1">
          <mxGeometry x="-290" y="300" width="180" height="164" as="geometry" />
        </mxCell>
        <mxCell id="bKbBzN9ccPdYWVPpAuME-89" value="List&amp;lt;Transaction&amp;gt; transactions" style="text;strokeColor=none;fillColor=none;align=left;verticalAlign=top;spacingLeft=4;spacingRight=4;overflow=hidden;rotatable=0;points=[[0,0.5],[1,0.5]];portConstraint=eastwest;whiteSpace=wrap;html=1;" vertex="1" parent="bKbBzN9ccPdYWVPpAuME-88">
          <mxGeometry y="26" width="180" height="26" as="geometry" />
        </mxCell>
        <mxCell id="bKbBzN9ccPdYWVPpAuME-90" value="" style="line;strokeWidth=1;fillColor=none;align=left;verticalAlign=middle;spacingTop=-1;spacingLeft=3;spacingRight=3;rotatable=0;labelPosition=right;points=[];portConstraint=eastwest;strokeColor=inherit;" vertex="1" parent="bKbBzN9ccPdYWVPpAuME-88">
          <mxGeometry y="52" width="180" height="8" as="geometry" />
        </mxCell>
        <mxCell id="bKbBzN9ccPdYWVPpAuME-91" value="Transaction findByID(int id)" style="text;strokeColor=none;fillColor=none;align=left;verticalAlign=top;spacingLeft=4;spacingRight=4;overflow=hidden;rotatable=0;points=[[0,0.5],[1,0.5]];portConstraint=eastwest;whiteSpace=wrap;html=1;" vertex="1" parent="bKbBzN9ccPdYWVPpAuME-88">
          <mxGeometry y="60" width="180" height="26" as="geometry" />
        </mxCell>
        <mxCell id="bKbBzN9ccPdYWVPpAuME-92" value="void findAll()" style="text;strokeColor=none;fillColor=none;align=left;verticalAlign=top;spacingLeft=4;spacingRight=4;overflow=hidden;rotatable=0;points=[[0,0.5],[1,0.5]];portConstraint=eastwest;whiteSpace=wrap;html=1;" vertex="1" parent="bKbBzN9ccPdYWVPpAuME-88">
          <mxGeometry y="86" width="180" height="26" as="geometry" />
        </mxCell>
        <mxCell id="bKbBzN9ccPdYWVPpAuME-93" value="void injectData()" style="text;strokeColor=none;fillColor=none;align=left;verticalAlign=top;spacingLeft=4;spacingRight=4;overflow=hidden;rotatable=0;points=[[0,0.5],[1,0.5]];portConstraint=eastwest;whiteSpace=wrap;html=1;" vertex="1" parent="bKbBzN9ccPdYWVPpAuME-88">
          <mxGeometry y="112" width="180" height="26" as="geometry" />
        </mxCell>
        <mxCell id="bKbBzN9ccPdYWVPpAuME-94" value="int size()" style="text;strokeColor=none;fillColor=none;align=left;verticalAlign=top;spacingLeft=4;spacingRight=4;overflow=hidden;rotatable=0;points=[[0,0.5],[1,0.5]];portConstraint=eastwest;whiteSpace=wrap;html=1;" vertex="1" parent="bKbBzN9ccPdYWVPpAuME-88">
          <mxGeometry y="138" width="180" height="26" as="geometry" />
        </mxCell>
        <mxCell id="bKbBzN9ccPdYWVPpAuME-165" value="" style="edgeStyle=orthogonalEdgeStyle;rounded=0;orthogonalLoop=1;jettySize=auto;html=1;entryX=0.506;entryY=1.43;entryDx=0;entryDy=0;entryPerimeter=0;" edge="1" parent="1" source="bKbBzN9ccPdYWVPpAuME-96">
          <mxGeometry relative="1" as="geometry">
            <mxPoint x="-189.10000000000036" y="725.4599999999998" as="targetPoint" />
            <Array as="points">
              <mxPoint x="240" y="794.28" />
              <mxPoint x="-189" y="794.28" />
            </Array>
          </mxGeometry>
        </mxCell>
        <mxCell id="bKbBzN9ccPdYWVPpAuME-96" value="ConvertCurrency" style="swimlane;fontStyle=0;childLayout=stackLayout;horizontal=1;startSize=26;fillColor=none;horizontalStack=0;resizeParent=1;resizeParentMax=0;resizeLast=0;collapsible=1;marginBottom=0;whiteSpace=wrap;html=1;" vertex="1" parent="1">
          <mxGeometry x="165" y="914.28" width="150" height="78" as="geometry" />
        </mxCell>
        <mxCell id="bKbBzN9ccPdYWVPpAuME-97" value="double convertCurrency()" style="text;strokeColor=none;fillColor=none;align=left;verticalAlign=top;spacingLeft=4;spacingRight=4;overflow=hidden;rotatable=0;points=[[0,0.5],[1,0.5]];portConstraint=eastwest;whiteSpace=wrap;html=1;" vertex="1" parent="bKbBzN9ccPdYWVPpAuME-96">
          <mxGeometry y="26" width="150" height="26" as="geometry" />
        </mxCell>
        <mxCell id="bKbBzN9ccPdYWVPpAuME-98" value="void selectOption()" style="text;strokeColor=none;fillColor=none;align=left;verticalAlign=top;spacingLeft=4;spacingRight=4;overflow=hidden;rotatable=0;points=[[0,0.5],[1,0.5]];portConstraint=eastwest;whiteSpace=wrap;html=1;" vertex="1" parent="bKbBzN9ccPdYWVPpAuME-96">
          <mxGeometry y="52" width="150" height="26" as="geometry" />
        </mxCell>
        <mxCell id="bKbBzN9ccPdYWVPpAuME-161" value="" style="edgeStyle=orthogonalEdgeStyle;rounded=0;orthogonalLoop=1;jettySize=auto;html=1;entryX=0.518;entryY=1.36;entryDx=0;entryDy=0;entryPerimeter=0;" edge="1" parent="1" source="bKbBzN9ccPdYWVPpAuME-100">
          <mxGeometry relative="1" as="geometry">
            <mxPoint x="-187.30000000000018" y="723.6399999999999" as="targetPoint" />
            <Array as="points">
              <mxPoint x="35" y="794.28" />
              <mxPoint x="-187" y="794.28" />
            </Array>
          </mxGeometry>
        </mxCell>
        <mxCell id="bKbBzN9ccPdYWVPpAuME-100" value="DepositMoney" style="swimlane;fontStyle=0;childLayout=stackLayout;horizontal=1;startSize=20;fillColor=none;horizontalStack=0;resizeParent=1;resizeParentMax=0;resizeLast=0;collapsible=1;marginBottom=0;whiteSpace=wrap;html=1;" vertex="1" parent="1">
          <mxGeometry x="-55" y="914.28" width="180" height="98" as="geometry" />
        </mxCell>
        <mxCell id="bKbBzN9ccPdYWVPpAuME-101" value="double calculateMoney()" style="text;strokeColor=none;fillColor=none;align=left;verticalAlign=top;spacingLeft=4;spacingRight=4;overflow=hidden;rotatable=0;points=[[0,0.5],[1,0.5]];portConstraint=eastwest;whiteSpace=wrap;html=1;" vertex="1" parent="bKbBzN9ccPdYWVPpAuME-100">
          <mxGeometry y="20" width="180" height="26" as="geometry" />
        </mxCell>
        <mxCell id="bKbBzN9ccPdYWVPpAuME-102" value="boolean successfulOperation()" style="text;strokeColor=none;fillColor=none;align=left;verticalAlign=top;spacingLeft=4;spacingRight=4;overflow=hidden;rotatable=0;points=[[0,0.5],[1,0.5]];portConstraint=eastwest;whiteSpace=wrap;html=1;" vertex="1" parent="bKbBzN9ccPdYWVPpAuME-100">
          <mxGeometry y="46" width="180" height="26" as="geometry" />
        </mxCell>
        <mxCell id="bKbBzN9ccPdYWVPpAuME-103" value="void chooseRecipient()" style="text;strokeColor=none;fillColor=none;align=left;verticalAlign=top;spacingLeft=4;spacingRight=4;overflow=hidden;rotatable=0;points=[[0,0.5],[1,0.5]];portConstraint=eastwest;whiteSpace=wrap;html=1;" vertex="1" parent="bKbBzN9ccPdYWVPpAuME-100">
          <mxGeometry y="72" width="180" height="26" as="geometry" />
        </mxCell>
        <mxCell id="bKbBzN9ccPdYWVPpAuME-156" value="" style="edgeStyle=orthogonalEdgeStyle;rounded=0;orthogonalLoop=1;jettySize=auto;html=1;entryX=0.518;entryY=1.5;entryDx=0;entryDy=0;entryPerimeter=0;" edge="1" parent="1" source="bKbBzN9ccPdYWVPpAuME-104">
          <mxGeometry relative="1" as="geometry">
            <mxPoint x="-187.30000000000018" y="727.28" as="targetPoint" />
            <Array as="points">
              <mxPoint x="-185" y="814.28" />
              <mxPoint x="-187" y="814.28" />
            </Array>
          </mxGeometry>
        </mxCell>
        <mxCell id="bKbBzN9ccPdYWVPpAuME-104" value="TransferToAccount" style="swimlane;fontStyle=0;childLayout=stackLayout;horizontal=1;startSize=20;fillColor=none;horizontalStack=0;resizeParent=1;resizeParentMax=0;resizeLast=0;collapsible=1;marginBottom=0;whiteSpace=wrap;html=1;" vertex="1" parent="1">
          <mxGeometry x="-275" y="914.28" width="180" height="98" as="geometry" />
        </mxCell>
        <mxCell id="bKbBzN9ccPdYWVPpAuME-105" value="double calculateMoney()" style="text;strokeColor=none;fillColor=none;align=left;verticalAlign=top;spacingLeft=4;spacingRight=4;overflow=hidden;rotatable=0;points=[[0,0.5],[1,0.5]];portConstraint=eastwest;whiteSpace=wrap;html=1;" vertex="1" parent="bKbBzN9ccPdYWVPpAuME-104">
          <mxGeometry y="20" width="180" height="26" as="geometry" />
        </mxCell>
        <mxCell id="bKbBzN9ccPdYWVPpAuME-106" value="boolean successfulOperation()" style="text;strokeColor=none;fillColor=none;align=left;verticalAlign=top;spacingLeft=4;spacingRight=4;overflow=hidden;rotatable=0;points=[[0,0.5],[1,0.5]];portConstraint=eastwest;whiteSpace=wrap;html=1;" vertex="1" parent="bKbBzN9ccPdYWVPpAuME-104">
          <mxGeometry y="46" width="180" height="26" as="geometry" />
        </mxCell>
        <mxCell id="bKbBzN9ccPdYWVPpAuME-107" value="void chooseRecipient()" style="text;strokeColor=none;fillColor=none;align=left;verticalAlign=top;spacingLeft=4;spacingRight=4;overflow=hidden;rotatable=0;points=[[0,0.5],[1,0.5]];portConstraint=eastwest;whiteSpace=wrap;html=1;" vertex="1" parent="bKbBzN9ccPdYWVPpAuME-104">
          <mxGeometry y="72" width="180" height="26" as="geometry" />
        </mxCell>
        <mxCell id="bKbBzN9ccPdYWVPpAuME-151" value="" style="edgeStyle=orthogonalEdgeStyle;rounded=0;orthogonalLoop=1;jettySize=auto;html=1;entryX=0.518;entryY=1.29;entryDx=0;entryDy=0;entryPerimeter=0;" edge="1" parent="1" source="bKbBzN9ccPdYWVPpAuME-108">
          <mxGeometry relative="1" as="geometry">
            <mxPoint x="-187.30000000000018" y="721.8199999999999" as="targetPoint" />
            <Array as="points">
              <mxPoint x="-415" y="794.28" />
              <mxPoint x="-187" y="794.28" />
            </Array>
          </mxGeometry>
        </mxCell>
        <mxCell id="bKbBzN9ccPdYWVPpAuME-108" value="TransferToContact" style="swimlane;fontStyle=0;childLayout=stackLayout;horizontal=1;startSize=20;fillColor=none;horizontalStack=0;resizeParent=1;resizeParentMax=0;resizeLast=0;collapsible=1;marginBottom=0;whiteSpace=wrap;html=1;" vertex="1" parent="1">
          <mxGeometry x="-505" y="914.28" width="180" height="98" as="geometry" />
        </mxCell>
        <mxCell id="bKbBzN9ccPdYWVPpAuME-109" value="double calculateMoney()" style="text;strokeColor=none;fillColor=none;align=left;verticalAlign=top;spacingLeft=4;spacingRight=4;overflow=hidden;rotatable=0;points=[[0,0.5],[1,0.5]];portConstraint=eastwest;whiteSpace=wrap;html=1;" vertex="1" parent="bKbBzN9ccPdYWVPpAuME-108">
          <mxGeometry y="20" width="180" height="26" as="geometry" />
        </mxCell>
        <mxCell id="bKbBzN9ccPdYWVPpAuME-110" value="boolean successfulOperation()" style="text;strokeColor=none;fillColor=none;align=left;verticalAlign=top;spacingLeft=4;spacingRight=4;overflow=hidden;rotatable=0;points=[[0,0.5],[1,0.5]];portConstraint=eastwest;whiteSpace=wrap;html=1;" vertex="1" parent="bKbBzN9ccPdYWVPpAuME-108">
          <mxGeometry y="46" width="180" height="26" as="geometry" />
        </mxCell>
        <mxCell id="bKbBzN9ccPdYWVPpAuME-111" value="void chooseRecipient()" style="text;strokeColor=none;fillColor=none;align=left;verticalAlign=top;spacingLeft=4;spacingRight=4;overflow=hidden;rotatable=0;points=[[0,0.5],[1,0.5]];portConstraint=eastwest;whiteSpace=wrap;html=1;" vertex="1" parent="bKbBzN9ccPdYWVPpAuME-108">
          <mxGeometry y="72" width="180" height="26" as="geometry" />
        </mxCell>
        <mxCell id="bKbBzN9ccPdYWVPpAuME-146" value="" style="edgeStyle=orthogonalEdgeStyle;rounded=0;orthogonalLoop=1;jettySize=auto;html=1;entryX=0.506;entryY=1.22;entryDx=0;entryDy=0;entryPerimeter=0;" edge="1" parent="1" source="bKbBzN9ccPdYWVPpAuME-112">
          <mxGeometry relative="1" as="geometry">
            <mxPoint x="-189.10000000000036" y="720" as="targetPoint" />
            <Array as="points">
              <mxPoint x="-635" y="794.28" />
              <mxPoint x="-189" y="794.28" />
            </Array>
          </mxGeometry>
        </mxCell>
        <mxCell id="bKbBzN9ccPdYWVPpAuME-112" value="WithdrawMoney" style="swimlane;fontStyle=0;childLayout=stackLayout;horizontal=1;startSize=20;fillColor=none;horizontalStack=0;resizeParent=1;resizeParentMax=0;resizeLast=0;collapsible=1;marginBottom=0;whiteSpace=wrap;html=1;" vertex="1" parent="1">
          <mxGeometry x="-725" y="914.28" width="180" height="98" as="geometry" />
        </mxCell>
        <mxCell id="bKbBzN9ccPdYWVPpAuME-113" value="double calculateMoney()" style="text;strokeColor=none;fillColor=none;align=left;verticalAlign=top;spacingLeft=4;spacingRight=4;overflow=hidden;rotatable=0;points=[[0,0.5],[1,0.5]];portConstraint=eastwest;whiteSpace=wrap;html=1;" vertex="1" parent="bKbBzN9ccPdYWVPpAuME-112">
          <mxGeometry y="20" width="180" height="26" as="geometry" />
        </mxCell>
        <mxCell id="bKbBzN9ccPdYWVPpAuME-114" value="boolean successfulOperation()" style="text;strokeColor=none;fillColor=none;align=left;verticalAlign=top;spacingLeft=4;spacingRight=4;overflow=hidden;rotatable=0;points=[[0,0.5],[1,0.5]];portConstraint=eastwest;whiteSpace=wrap;html=1;" vertex="1" parent="bKbBzN9ccPdYWVPpAuME-112">
          <mxGeometry y="46" width="180" height="26" as="geometry" />
        </mxCell>
        <mxCell id="bKbBzN9ccPdYWVPpAuME-115" value="void chooseRecipient()" style="text;strokeColor=none;fillColor=none;align=left;verticalAlign=top;spacingLeft=4;spacingRight=4;overflow=hidden;rotatable=0;points=[[0,0.5],[1,0.5]];portConstraint=eastwest;whiteSpace=wrap;html=1;" vertex="1" parent="bKbBzN9ccPdYWVPpAuME-112">
          <mxGeometry y="72" width="180" height="26" as="geometry" />
        </mxCell>
        <mxCell id="bKbBzN9ccPdYWVPpAuME-174" style="edgeStyle=orthogonalEdgeStyle;rounded=0;orthogonalLoop=1;jettySize=auto;html=1;exitX=0.5;exitY=0;exitDx=0;exitDy=0;entryX=0;entryY=0.5;entryDx=0;entryDy=0;" edge="1" parent="1" source="bKbBzN9ccPdYWVPpAuME-124" target="bKbBzN9ccPdYWVPpAuME-85">
          <mxGeometry relative="1" as="geometry">
            <Array as="points">
              <mxPoint x="-185" y="540" />
              <mxPoint x="310" y="540" />
              <mxPoint x="310" y="689" />
            </Array>
          </mxGeometry>
        </mxCell>
        <mxCell id="bKbBzN9ccPdYWVPpAuME-124" value="OperationMenu" style="swimlane;fontStyle=0;childLayout=stackLayout;horizontal=1;startSize=26;fillColor=none;horizontalStack=0;resizeParent=1;resizeParentMax=0;resizeLast=0;collapsible=1;marginBottom=0;whiteSpace=wrap;html=1;" vertex="1" parent="1">
          <mxGeometry x="-260" y="620" width="150" height="104" as="geometry" />
        </mxCell>
        <mxCell id="bKbBzN9ccPdYWVPpAuME-141" value="void operations(int option)" style="text;strokeColor=none;fillColor=none;align=left;verticalAlign=top;spacingLeft=4;spacingRight=4;overflow=hidden;rotatable=0;points=[[0,0.5],[1,0.5]];portConstraint=eastwest;whiteSpace=wrap;html=1;" vertex="1" parent="bKbBzN9ccPdYWVPpAuME-124">
          <mxGeometry y="26" width="150" height="26" as="geometry" />
        </mxCell>
        <mxCell id="bKbBzN9ccPdYWVPpAuME-125" value="void operations(int option)" style="text;strokeColor=none;fillColor=none;align=left;verticalAlign=top;spacingLeft=4;spacingRight=4;overflow=hidden;rotatable=0;points=[[0,0.5],[1,0.5]];portConstraint=eastwest;whiteSpace=wrap;html=1;" vertex="1" parent="bKbBzN9ccPdYWVPpAuME-124">
          <mxGeometry y="52" width="150" height="26" as="geometry" />
        </mxCell>
        <mxCell id="bKbBzN9ccPdYWVPpAuME-126" value="void newTransaction()" style="text;strokeColor=none;fillColor=none;align=left;verticalAlign=top;spacingLeft=4;spacingRight=4;overflow=hidden;rotatable=0;points=[[0,0.5],[1,0.5]];portConstraint=eastwest;whiteSpace=wrap;html=1;" vertex="1" parent="bKbBzN9ccPdYWVPpAuME-124">
          <mxGeometry y="78" width="150" height="26" as="geometry" />
        </mxCell>
        <mxCell id="bKbBzN9ccPdYWVPpAuME-140" value="" style="edgeStyle=orthogonalEdgeStyle;rounded=0;orthogonalLoop=1;jettySize=auto;html=1;entryX=0.052;entryY=-0.101;entryDx=0;entryDy=0;entryPerimeter=0;exitX=1;exitY=0.5;exitDx=0;exitDy=0;" edge="1" parent="1" source="bKbBzN9ccPdYWVPpAuME-132" target="bKbBzN9ccPdYWVPpAuME-125">
          <mxGeometry relative="1" as="geometry">
            <mxPoint x="-570.0000000000002" y="112" as="targetPoint" />
          </mxGeometry>
        </mxCell>
        <mxCell id="bKbBzN9ccPdYWVPpAuME-128" value="Menu(User)" style="swimlane;fontStyle=0;childLayout=stackLayout;horizontal=1;startSize=26;fillColor=none;horizontalStack=0;resizeParent=1;resizeParentMax=0;resizeLast=0;collapsible=1;marginBottom=0;whiteSpace=wrap;html=1;" vertex="1" parent="1">
          <mxGeometry x="-800" y="34" width="140" height="156" as="geometry" />
        </mxCell>
        <mxCell id="bKbBzN9ccPdYWVPpAuME-129" value="runMenu()" style="text;strokeColor=none;fillColor=none;align=left;verticalAlign=top;spacingLeft=4;spacingRight=4;overflow=hidden;rotatable=0;points=[[0,0.5],[1,0.5]];portConstraint=eastwest;whiteSpace=wrap;html=1;" vertex="1" parent="bKbBzN9ccPdYWVPpAuME-128">
          <mxGeometry y="26" width="140" height="26" as="geometry" />
        </mxCell>
        <mxCell id="bKbBzN9ccPdYWVPpAuME-130" value="showMenu()" style="text;strokeColor=none;fillColor=none;align=left;verticalAlign=top;spacingLeft=4;spacingRight=4;overflow=hidden;rotatable=0;points=[[0,0.5],[1,0.5]];portConstraint=eastwest;whiteSpace=wrap;html=1;" vertex="1" parent="bKbBzN9ccPdYWVPpAuME-128">
          <mxGeometry y="52" width="140" height="26" as="geometry" />
        </mxCell>
        <mxCell id="bKbBzN9ccPdYWVPpAuME-132" value="selectOption()" style="text;strokeColor=none;fillColor=none;align=left;verticalAlign=top;spacingLeft=4;spacingRight=4;overflow=hidden;rotatable=0;points=[[0,0.5],[1,0.5]];portConstraint=eastwest;whiteSpace=wrap;html=1;" vertex="1" parent="bKbBzN9ccPdYWVPpAuME-128">
          <mxGeometry y="78" width="140" height="26" as="geometry" />
        </mxCell>
        <mxCell id="bKbBzN9ccPdYWVPpAuME-133" value="operationMenu()" style="text;strokeColor=none;fillColor=none;align=left;verticalAlign=top;spacingLeft=4;spacingRight=4;overflow=hidden;rotatable=0;points=[[0,0.5],[1,0.5]];portConstraint=eastwest;whiteSpace=wrap;html=1;" vertex="1" parent="bKbBzN9ccPdYWVPpAuME-128">
          <mxGeometry y="104" width="140" height="26" as="geometry" />
        </mxCell>
        <mxCell id="bKbBzN9ccPdYWVPpAuME-131" value="stayInProgram()" style="text;strokeColor=none;fillColor=none;align=left;verticalAlign=top;spacingLeft=4;spacingRight=4;overflow=hidden;rotatable=0;points=[[0,0.5],[1,0.5]];portConstraint=eastwest;whiteSpace=wrap;html=1;" vertex="1" parent="bKbBzN9ccPdYWVPpAuME-128">
          <mxGeometry y="130" width="140" height="26" as="geometry" />
        </mxCell>
        <mxCell id="bKbBzN9ccPdYWVPpAuME-168" style="edgeStyle=orthogonalEdgeStyle;rounded=0;orthogonalLoop=1;jettySize=auto;html=1;exitX=0;exitY=0.5;exitDx=0;exitDy=0;entryX=0.486;entryY=1.192;entryDx=0;entryDy=0;entryPerimeter=0;" edge="1" parent="1" source="bKbBzN9ccPdYWVPpAuME-48" target="bKbBzN9ccPdYWVPpAuME-55">
          <mxGeometry relative="1" as="geometry">
            <Array as="points">
              <mxPoint x="-372" y="175" />
            </Array>
          </mxGeometry>
        </mxCell>
        <mxCell id="bKbBzN9ccPdYWVPpAuME-169" style="edgeStyle=orthogonalEdgeStyle;rounded=0;orthogonalLoop=1;jettySize=auto;html=1;exitX=0.5;exitY=0;exitDx=0;exitDy=0;entryX=0.477;entryY=0.833;entryDx=0;entryDy=0;entryPerimeter=0;" edge="1" parent="1" source="bKbBzN9ccPdYWVPpAuME-88" target="bKbBzN9ccPdYWVPpAuME-46">
          <mxGeometry relative="1" as="geometry">
            <Array as="points">
              <mxPoint x="-200" y="274" />
              <mxPoint x="-204" y="274" />
            </Array>
          </mxGeometry>
        </mxCell>
        <mxCell id="bKbBzN9ccPdYWVPpAuME-170" style="edgeStyle=orthogonalEdgeStyle;rounded=0;orthogonalLoop=1;jettySize=auto;html=1;exitX=0.5;exitY=0;exitDx=0;exitDy=0;entryX=0.544;entryY=1.295;entryDx=0;entryDy=0;entryPerimeter=0;" edge="1" parent="1" source="bKbBzN9ccPdYWVPpAuME-124" target="bKbBzN9ccPdYWVPpAuME-94">
          <mxGeometry relative="1" as="geometry">
            <Array as="points">
              <mxPoint x="-185" y="542" />
              <mxPoint x="-192" y="542" />
            </Array>
          </mxGeometry>
        </mxCell>
        <mxCell id="bKbBzN9ccPdYWVPpAuME-171" style="edgeStyle=orthogonalEdgeStyle;rounded=0;orthogonalLoop=1;jettySize=auto;html=1;exitX=0.5;exitY=0;exitDx=0;exitDy=0;entryX=0.519;entryY=1.487;entryDx=0;entryDy=0;entryPerimeter=0;" edge="1" parent="1" source="bKbBzN9ccPdYWVPpAuME-124" target="bKbBzN9ccPdYWVPpAuME-80">
          <mxGeometry relative="1" as="geometry">
            <Array as="points">
              <mxPoint x="-185" y="540" />
              <mxPoint x="13" y="540" />
            </Array>
          </mxGeometry>
        </mxCell>
        <mxCell id="bKbBzN9ccPdYWVPpAuME-172" style="edgeStyle=orthogonalEdgeStyle;rounded=0;orthogonalLoop=1;jettySize=auto;html=1;exitX=0.5;exitY=0;exitDx=0;exitDy=0;entryX=0.581;entryY=1.551;entryDx=0;entryDy=0;entryPerimeter=0;" edge="1" parent="1" source="bKbBzN9ccPdYWVPpAuME-124" target="bKbBzN9ccPdYWVPpAuME-73">
          <mxGeometry relative="1" as="geometry">
            <Array as="points">
              <mxPoint x="-185" y="540" />
              <mxPoint x="218" y="540" />
            </Array>
          </mxGeometry>
        </mxCell>
        <mxCell id="bKbBzN9ccPdYWVPpAuME-173" style="edgeStyle=orthogonalEdgeStyle;rounded=0;orthogonalLoop=1;jettySize=auto;html=1;exitX=0.5;exitY=0;exitDx=0;exitDy=0;entryX=0.571;entryY=1.423;entryDx=0;entryDy=0;entryPerimeter=0;" edge="1" parent="1" source="bKbBzN9ccPdYWVPpAuME-124" target="bKbBzN9ccPdYWVPpAuME-66">
          <mxGeometry relative="1" as="geometry">
            <Array as="points">
              <mxPoint x="-185" y="540" />
              <mxPoint x="431" y="540" />
            </Array>
          </mxGeometry>
        </mxCell>
        <mxCell id="bKbBzN9ccPdYWVPpAuME-175" style="edgeStyle=orthogonalEdgeStyle;rounded=0;orthogonalLoop=1;jettySize=auto;html=1;exitX=1;exitY=0.5;exitDx=0;exitDy=0;entryX=-0.002;entryY=0.141;entryDx=0;entryDy=0;entryPerimeter=0;" edge="1" parent="1" source="bKbBzN9ccPdYWVPpAuME-85" target="bKbBzN9ccPdYWVPpAuME-27">
          <mxGeometry relative="1" as="geometry" />
        </mxCell>
        <mxCell id="bKbBzN9ccPdYWVPpAuME-176" style="edgeStyle=orthogonalEdgeStyle;rounded=0;orthogonalLoop=1;jettySize=auto;html=1;exitX=0.5;exitY=0;exitDx=0;exitDy=0;entryX=0.521;entryY=0.962;entryDx=0;entryDy=0;entryPerimeter=0;" edge="1" parent="1" source="bKbBzN9ccPdYWVPpAuME-60" target="bKbBzN9ccPdYWVPpAuME-14">
          <mxGeometry relative="1" as="geometry" />
        </mxCell>
        <mxCell id="bKbBzN9ccPdYWVPpAuME-177" style="edgeStyle=orthogonalEdgeStyle;rounded=0;orthogonalLoop=1;jettySize=auto;html=1;exitX=0.5;exitY=0;exitDx=0;exitDy=0;entryX=0.498;entryY=1.526;entryDx=0;entryDy=0;entryPerimeter=0;" edge="1" parent="1" source="bKbBzN9ccPdYWVPpAuME-67" target="bKbBzN9ccPdYWVPpAuME-17">
          <mxGeometry relative="1" as="geometry" />
        </mxCell>
        <mxCell id="bKbBzN9ccPdYWVPpAuME-178" style="edgeStyle=orthogonalEdgeStyle;rounded=0;orthogonalLoop=1;jettySize=auto;html=1;exitX=0.5;exitY=0;exitDx=0;exitDy=0;entryX=0.486;entryY=1.295;entryDx=0;entryDy=0;entryPerimeter=0;" edge="1" parent="1" source="bKbBzN9ccPdYWVPpAuME-74" target="bKbBzN9ccPdYWVPpAuME-23">
          <mxGeometry relative="1" as="geometry">
            <Array as="points">
              <mxPoint x="10" y="272" />
              <mxPoint x="-2" y="272" />
            </Array>
          </mxGeometry>
        </mxCell>
      </root>
    </mxGraphModel>
  </diagram>
</mxfile>
